<svg width="132" height="132" viewBox="0 0 132 132" fill="none" xmlns="http://www.w3.org/2000/svg">
<path d="M21.9272 60.7642C21.8838 60.6292 21.8164 60.5023 21.7288 60.3896C21.6411 60.2576 21.5535 60.1479 21.4649 60.0381L21.1356 59.7742C21.0127 59.6906 20.8798 59.6242 20.7388 59.5758C20.6149 59.5124 20.481 59.4681 20.343 59.4439C19.6945 59.3059 19.0187 59.4691 18.5061 59.889C17.9925 60.308 17.6974 60.9374 17.7035 61.6001C17.7065 61.8871 17.7659 62.1711 17.8787 62.4359C17.9905 62.7028 18.1466 62.9475 18.3409 63.162C18.7629 63.5639 19.3208 63.7915 19.9029 63.7995C20.051 63.7965 20.198 63.7814 20.343 63.7562C20.481 63.732 20.6149 63.6877 20.7388 63.6243C20.8798 63.576 21.0127 63.5095 21.1356 63.4259L21.4649 63.162C21.6593 62.9475 21.8154 62.7028 21.9272 62.4359C22.05 62.1751 22.1104 61.8891 22.1034 61.6001C22.0994 61.452 22.0843 61.305 22.0591 61.16C22.0349 61.022 21.9906 60.8891 21.9272 60.7642Z" fill="#489AFF"/>
<path d="M30.7271 60.7642C30.6838 60.6292 30.6163 60.5023 30.5287 60.3896C30.4411 60.2576 30.3535 60.1479 30.2648 60.0381L29.9355 59.7742C29.8127 59.6906 29.6797 59.6242 29.5387 59.5758C29.4149 59.5124 29.2809 59.4681 29.1429 59.4439C28.4954 59.3059 27.8196 59.4691 27.306 59.889C26.7924 60.308 26.4973 60.9374 26.5034 61.6001C26.5064 61.8871 26.5668 62.1711 26.6796 62.4359C26.7904 62.7028 26.9475 62.9475 27.1409 63.162C27.5628 63.5639 28.1208 63.7915 28.7029 63.7995C28.8509 63.7965 28.9979 63.7814 29.1429 63.7562C29.2809 63.732 29.4149 63.6877 29.5387 63.6243C29.6797 63.576 29.8127 63.5095 29.9355 63.4259L30.2648 63.162C30.4592 62.9475 30.6153 62.7028 30.7271 62.4359C30.851 62.1751 30.9104 61.8891 30.9033 61.6001C30.8993 61.452 30.8852 61.305 30.859 61.16C30.8348 61.022 30.7905 60.8891 30.7271 60.7642Z" fill="#489AFF"/>
<path d="M39.5269 60.7642C39.4836 60.6292 39.4161 60.5023 39.3295 60.3896C39.2409 60.2576 39.1533 60.1479 39.0646 60.0381L38.7353 59.7742C38.6125 59.6906 38.4795 59.6242 38.3395 59.5758C38.2147 59.5124 38.0807 59.4681 37.9427 59.4439C37.2952 59.3059 36.6194 59.4691 36.1058 59.889C35.5922 60.308 35.2971 60.9374 35.3032 61.6001C35.3062 61.8871 35.3666 62.1711 35.4794 62.4359C35.5912 62.7028 35.7473 62.9475 35.9407 63.162C36.3626 63.5639 36.9206 63.7915 37.5027 63.7995C37.6507 63.7965 37.7977 63.7814 37.9427 63.7562C38.0807 63.732 38.2147 63.6877 38.3395 63.6243C38.4795 63.576 38.6125 63.5095 38.7353 63.4259L39.0646 63.162C39.259 62.9475 39.4151 62.7028 39.5269 62.4359C39.6508 62.1751 39.7112 61.8891 39.7031 61.6001C39.6991 61.452 39.685 61.305 39.6588 61.16C39.6357 61.022 39.5903 60.8891 39.5269 60.7642Z" fill="#489AFF"/>
<path d="M72.7031 0H59.5033C57.0732 0 55.1034 1.96985 55.1034 4.39993V8.65082C43.1604 13.1756 35.273 24.6292 35.3032 37.3999V39.6004C31.6576 39.6004 28.7028 42.5552 28.7028 46.1998V50.5997H17.7035C11.6308 50.6068 6.71017 55.5284 6.70312 61.6001V121C6.71017 127.072 11.6308 131.993 17.7035 132H114.503C120.576 131.993 125.496 127.072 125.503 121V61.6001C125.496 55.5284 120.576 50.6068 114.503 50.5997H103.503V46.1998C103.503 42.5552 100.548 39.6004 96.9033 39.6004V37.3999C96.9335 24.6292 89.046 13.1756 77.1031 8.65082V4.39993C77.1031 1.96985 75.1332 0 72.7031 0V0ZM59.5033 4.39993H72.7031V28.6001C72.7031 29.8146 71.7182 30.7995 70.5027 30.7995H61.7028C60.4883 30.7995 59.5033 29.8146 59.5033 28.6001V4.39993ZM45.9047 28.6001H41.2127C42.0607 26.173 43.2601 23.8829 44.7738 21.8043L45.9047 28.6001ZM114.503 127.6H17.7035C14.0578 127.6 11.1031 124.645 11.1031 121V72.6004H121.103V121C121.103 124.645 118.149 127.6 114.503 127.6ZM121.103 61.6001V68.2005H11.1031V61.6001C11.1031 57.9544 14.0578 54.9997 17.7035 54.9997H114.503C118.149 54.9997 121.103 57.9544 121.103 61.6001ZM99.1027 46.1998V50.5997H33.1027V46.1998C33.1027 44.9853 34.0876 44.0003 35.3032 44.0003H96.9033C98.1178 44.0003 99.1027 44.9853 99.1027 46.1998ZM87.4427 21.8043C88.9534 23.8839 90.1488 26.173 90.9937 28.6001H86.3017L87.4427 21.8043ZM83.6612 17.6702L81.5342 30.4299C81.4254 31.0694 81.6037 31.724 82.0216 32.2195C82.4396 32.714 83.0549 33 83.7035 33H92.1337C92.3784 34.4542 92.5013 35.9256 92.5033 37.3999V39.6004H39.7031V37.3999C39.7041 35.9256 39.828 34.4542 40.0727 33H48.503C49.1495 33 49.7639 32.715 50.1818 32.2215C50.5997 31.7271 50.779 31.0745 50.6722 30.437L48.5453 17.6773C50.5061 15.938 52.7166 14.504 55.1034 13.4203V28.6001C55.1034 32.2447 58.0582 35.2005 61.7028 35.2005H70.5027C74.1483 35.2005 77.1031 32.2447 77.1031 28.6001V13.4203C79.4888 14.502 81.6994 15.934 83.6612 17.6702Z" fill="#489AFF"/>
<path d="M48.503 107.8H46.3035V103.4C46.3035 102.185 45.3186 101.2 44.1031 101.2C42.8885 101.2 41.9036 102.185 41.9036 103.4V107.8H32.6415L48.1777 82.5524C48.642 81.8837 48.6984 81.0126 48.3247 80.2895C47.9511 79.5654 47.2079 79.1082 46.3942 79.0991C45.5794 79.09 44.8271 79.5321 44.4374 80.2472L26.8377 108.847C26.4207 109.525 26.4016 110.375 26.7893 111.07C27.1761 111.765 27.9072 112.197 28.7028 112.2H41.9036V116.6C41.9036 117.815 42.8885 118.8 44.1031 118.8C45.3186 118.8 46.3035 117.815 46.3035 116.6V112.2H48.503C49.7185 112.2 50.7035 111.215 50.7035 110C50.7035 108.785 49.7185 107.8 48.503 107.8Z" fill="#489AFF"/>
<path d="M103.503 107.8H101.303V103.4C101.303 102.185 100.318 101.2 99.1027 101.2C97.8881 101.2 96.9032 102.185 96.9032 103.4V107.8H87.6411L103.177 82.5524C103.736 81.5262 103.395 80.2421 102.4 79.6288C101.405 79.0155 100.104 79.2864 99.437 80.2472L81.8373 108.847C81.4204 109.525 81.4022 110.375 81.7889 111.07C82.1757 111.765 82.9078 112.197 83.7034 112.2H96.9032V116.6C96.9032 117.815 97.8881 118.8 99.1027 118.8C100.318 118.8 101.303 117.815 101.303 116.6V112.2H103.503C104.718 112.2 105.703 111.215 105.703 110C105.703 108.785 104.718 107.8 103.503 107.8Z" fill="#489AFF"/>
<path d="M70.5027 79.1998H61.7028C58.0582 79.1998 55.1034 82.1546 55.1034 85.8002V112.2C55.1034 115.845 58.0582 118.8 61.7028 118.8H70.5027C74.1483 118.8 77.1031 115.845 77.1031 112.2V85.8002C77.1031 82.1546 74.1483 79.1998 70.5027 79.1998ZM72.7031 112.2C72.7031 113.415 71.7182 114.4 70.5027 114.4H61.7028C60.4883 114.4 59.5033 113.415 59.5033 112.2V85.8002C59.5033 84.5847 60.4883 83.5997 61.7028 83.5997H70.5027C71.7182 83.5997 72.7031 84.5847 72.7031 85.8002V112.2Z" fill="#489AFF"/>
</svg>
