<svg width="853" height="667" viewBox="0 0 853 667" fill="none" xmlns="http://www.w3.org/2000/svg">
<path d="M95.8065 312.041C-28.3733 211.721 -5.78367 62.2137 21.0336 0H853V666.853C759.613 669.446 544.633 638.663 431.811 494.794C290.784 314.957 251.031 437.44 95.8065 312.041Z" fill="#F3F5FE"/>
<g clip-path="url(#clip0_81_47)">
<path d="M572.994 515.064C579.221 511.483 584.435 506.527 588.188 500.621C591.941 494.715 594.122 488.036 594.542 481.157C594.961 474.279 593.608 467.407 590.598 461.132C587.588 454.857 583.012 449.367 577.262 445.133C582.809 437.723 589.015 430.774 595.814 424.363C599.061 421.297 602.356 418.405 605.702 415.637C607.033 416.698 608.335 417.8 609.61 418.942L620.692 412.54C622.04 411.761 623.537 411.241 625.098 411.009C626.658 410.777 628.252 410.838 629.788 411.188C631.324 411.538 632.772 412.171 634.049 413.05C635.326 413.93 636.407 415.038 637.231 416.313L648.217 433.294C649.041 434.568 649.592 435.984 649.837 437.459C650.083 438.934 650.018 440.441 649.648 441.893C649.277 443.345 648.607 444.713 647.677 445.92C646.747 447.128 645.574 448.15 644.226 448.929L633.144 455.331C635.6 463.187 636.797 471.346 636.696 479.538L649.22 482.843C650.742 483.244 652.167 483.925 653.411 484.847C654.655 485.769 655.695 486.913 656.471 488.215C657.247 489.517 657.744 490.951 657.933 492.435C658.122 493.919 658 495.423 657.574 496.862L651.914 516.033C651.489 517.472 650.769 518.819 649.794 519.995C648.818 521.171 647.607 522.154 646.23 522.887C644.853 523.621 643.336 524.09 641.766 524.269C640.197 524.448 638.605 524.333 637.083 523.93L624.57 520.63C621.216 526.009 617.221 531.008 612.664 535.527L619.437 546.003C621.095 548.578 621.605 551.669 620.854 554.599C620.102 557.529 618.151 560.056 615.43 561.627L597.465 572.012C596.117 572.791 594.619 573.311 593.059 573.543C591.498 573.775 589.904 573.714 588.368 573.363C586.832 573.012 585.384 572.379 584.107 571.5C582.83 570.62 581.749 569.512 580.926 568.237L574.153 557.764C567.736 559.55 561.121 560.628 554.441 560.975C550.645 548.063 548.978 534.675 549.498 521.282C557.787 521.303 565.921 519.151 572.994 515.064V515.064Z" fill="#489AFF"/>
<path d="M541.596 278.88H154.34C143.831 278.88 135.312 286.933 135.312 296.866V546.554C135.312 556.487 143.831 564.54 154.34 564.54H541.596C552.105 564.54 560.624 556.487 560.624 546.554V296.866C560.624 286.933 552.105 278.88 541.596 278.88Z" fill="#E3EAFF"/>
<path d="M539.945 282.639H155.988C147.659 282.639 140.907 289.022 140.907 296.895V546.528C140.907 554.401 147.659 560.783 155.988 560.783H539.945C548.274 560.783 555.026 554.401 555.026 546.528V296.895C555.026 289.022 548.274 282.639 539.945 282.639Z" fill="#6DB8FF"/>
<path d="M527.828 295.729H168.105C162.974 295.729 158.814 299.662 158.814 304.512V527.459C158.814 532.309 162.974 536.241 168.105 536.241H527.828C532.959 536.241 537.119 532.309 537.119 527.459V304.512C537.119 299.662 532.959 295.729 527.828 295.729Z" fill="#2F6DFF"/>
<path d="M124.983 549.729C123.699 551.915 123.017 554.371 123 556.871C123 560.869 124.68 564.704 127.671 567.531C130.662 570.359 134.719 571.947 138.949 571.947H556.985C559.079 571.947 561.153 571.558 563.089 570.8C565.024 570.043 566.783 568.932 568.264 567.532C569.745 566.132 570.92 564.47 571.722 562.641C572.524 560.812 572.936 558.851 572.936 556.871C572.918 554.37 572.235 551.914 570.95 549.729H124.983Z" fill="#E3EAFF"/>
<path d="M124.983 564.013C126.336 566.404 128.349 568.405 130.808 569.802C133.267 571.198 136.08 571.94 138.949 571.947H556.985C559.853 571.94 562.667 571.198 565.125 569.802C567.584 568.405 569.597 566.404 570.95 564.013H124.983Z" fill="#C8D6F2"/>
<path opacity="0.2" d="M541.596 278.88H257.792V458.166C257.791 459.109 257.987 460.042 258.369 460.913C258.75 461.784 259.31 462.576 260.015 463.243C260.72 463.909 261.558 464.438 262.479 464.799C263.401 465.159 264.388 465.345 265.386 465.344H560.632V296.866C560.632 294.504 560.139 292.164 559.183 289.982C558.226 287.799 556.824 285.816 555.056 284.145C553.288 282.475 551.19 281.15 548.88 280.247C546.571 279.343 544.096 278.879 541.596 278.88V278.88Z" fill="#424261"/>
<path opacity="0.21" d="M592.867 258.069H275.825C271.631 258.069 268.231 261.283 268.231 265.247V450.089C268.231 454.054 271.631 457.268 275.825 457.268H592.867C597.061 457.268 600.461 454.054 600.461 450.089V265.247C600.461 261.283 597.061 258.069 592.867 258.069Z" fill="#E3EAFF"/>
<path d="M606.157 244.61H289.115C284.921 244.61 281.521 247.824 281.521 251.789V436.63C281.521 440.595 284.921 443.809 289.115 443.809H606.157C610.352 443.809 613.752 440.595 613.752 436.63V251.789C613.752 247.824 610.352 244.61 606.157 244.61Z" fill="#F9FBFC"/>
<path opacity="0.2" d="M220.179 337.928H186.479C183.858 337.928 181.733 339.937 181.733 342.414V376.064C181.733 378.541 183.858 380.55 186.479 380.55H220.179C222.8 380.55 224.925 378.541 224.925 376.064V342.414C224.925 339.937 222.8 337.928 220.179 337.928Z" fill="#424261"/>
<path d="M217.688 399.84H183.988C181.367 399.84 179.242 401.848 179.242 404.326V437.975C179.242 440.453 181.367 442.461 183.988 442.461H217.688C220.309 442.461 222.433 440.453 222.433 437.975V404.326C222.433 401.848 220.309 399.84 217.688 399.84Z" fill="#6DB8FF"/>
<path d="M217.688 460.409H183.988C181.367 460.409 179.242 462.418 179.242 464.895V498.545C179.242 501.022 181.367 503.031 183.988 503.031H217.688C220.309 503.031 222.433 501.022 222.433 498.545V464.895C222.433 462.418 220.309 460.409 217.688 460.409Z" fill="#6DB8FF"/>
<path d="M210.272 477.025C210.272 474.451 209.19 471.982 207.265 470.163C205.34 468.343 202.729 467.32 200.006 467.32C197.283 467.32 194.672 468.343 192.746 470.163C190.821 471.982 189.739 474.451 189.739 477.025C189.739 477.025 188.292 487.303 200.006 495.476C211.719 487.303 210.272 477.025 210.272 477.025Z" fill="#9570EE"/>
<path d="M200.61 484.032C199.092 484.149 197.573 483.823 196.258 483.098C194.943 482.372 193.895 481.283 193.256 479.977C192.616 478.671 192.416 477.211 192.683 475.794C192.95 474.377 193.67 473.071 194.747 472.053C195.823 471.036 197.204 470.355 198.703 470.103C200.202 469.851 201.747 470.04 203.129 470.644C204.511 471.248 205.663 472.239 206.43 473.482C207.197 474.726 207.542 476.161 207.418 477.596C207.275 479.257 206.511 480.817 205.264 481.995C204.017 483.174 202.368 483.896 200.61 484.032V484.032Z" fill="#F9FBFC"/>
<path d="M214.007 420.588C214.008 423.244 213.175 425.841 211.615 428.049C210.054 430.258 207.836 431.979 205.24 432.996C202.645 434.012 199.789 434.279 197.033 433.761C194.277 433.243 191.746 431.964 189.759 430.087C187.772 428.209 186.419 425.816 185.871 423.212C185.323 420.607 185.604 417.907 186.679 415.453C187.754 412.999 189.574 410.902 191.91 409.427C194.247 407.951 196.993 407.163 199.803 407.163C203.569 407.163 207.182 408.578 209.846 411.095C212.51 413.613 214.007 417.028 214.007 420.588V420.588Z" fill="#9570EE"/>
<path d="M211.258 420.588C211.259 422.73 210.587 424.824 209.329 426.605C208.07 428.386 206.281 429.775 204.188 430.595C202.095 431.415 199.792 431.63 197.569 431.212C195.347 430.794 193.305 429.763 191.703 428.249C190.101 426.735 189.009 424.805 188.567 422.705C188.125 420.604 188.352 418.427 189.219 416.448C190.086 414.469 191.554 412.777 193.438 411.587C195.322 410.397 197.537 409.762 199.802 409.762C202.84 409.762 205.754 410.903 207.902 412.933C210.05 414.963 211.257 417.717 211.258 420.588V420.588Z" fill="#F9FBFC"/>
<path d="M199.802 409.762C202.272 409.761 204.675 410.513 206.655 411.908C208.634 413.302 210.084 415.264 210.788 417.502C210.817 417.592 210.875 417.671 210.955 417.728C211.034 417.784 211.131 417.815 211.231 417.816V417.816C211.301 417.816 211.371 417.801 211.435 417.771C211.498 417.741 211.553 417.698 211.596 417.644C211.639 417.591 211.667 417.529 211.68 417.463C211.693 417.397 211.69 417.33 211.67 417.265C210.919 414.842 209.357 412.713 207.219 411.199C205.081 409.685 202.481 408.867 199.809 408.867C197.138 408.867 194.538 409.685 192.4 411.199C190.261 412.713 188.7 414.842 187.949 417.265C187.929 417.33 187.926 417.397 187.938 417.463C187.951 417.529 187.98 417.591 188.023 417.644C188.065 417.698 188.121 417.741 188.184 417.771C188.248 417.801 188.317 417.816 188.388 417.816V417.816C188.488 417.815 188.584 417.784 188.664 417.728C188.744 417.671 188.802 417.592 188.83 417.502C189.533 415.266 190.981 413.306 192.958 411.911C194.935 410.517 197.336 409.763 199.802 409.762Z" fill="#BB87EE"/>
<path d="M212.521 420.934C212.191 420.934 211.872 421.046 211.623 421.25C211.373 421.454 211.209 421.736 211.162 422.045C210.791 424.641 209.437 427.022 207.35 428.746C205.263 430.47 202.586 431.42 199.815 431.42C197.043 431.42 194.366 430.47 192.28 428.746C190.193 427.022 188.839 424.641 188.468 422.045C188.42 421.736 188.257 421.454 188.007 421.25C187.757 421.046 187.438 420.934 187.108 420.934C186.912 420.932 186.718 420.97 186.539 421.046C186.36 421.121 186.201 421.231 186.071 421.37C185.94 421.508 185.843 421.671 185.785 421.848C185.728 422.025 185.71 422.212 185.735 422.395C186.195 425.615 187.875 428.567 190.462 430.705C193.05 432.843 196.37 434.022 199.807 434.022C203.243 434.022 206.563 432.843 209.151 430.705C211.739 428.567 213.418 425.615 213.878 422.395C213.903 422.212 213.886 422.025 213.828 421.848C213.77 421.671 213.673 421.508 213.543 421.37C213.413 421.231 213.253 421.121 213.074 421.046C212.895 420.97 212.701 420.932 212.505 420.934H212.521Z" fill="#7F57EE"/>
<path d="M211.258 420.588C211.259 422.73 210.587 424.824 209.329 426.605C208.07 428.386 206.281 429.775 204.188 430.595C202.095 431.415 199.792 431.63 197.569 431.212C195.347 430.794 193.305 429.763 191.703 428.249C190.101 426.735 189.009 424.805 188.567 422.705C188.125 420.604 188.352 418.427 189.219 416.448C190.086 414.469 191.554 412.777 193.438 411.587C195.322 410.397 197.537 409.762 199.802 409.762C202.84 409.762 205.754 410.903 207.902 412.933C210.05 414.963 211.257 417.717 211.258 420.588V420.588Z" fill="#F9FBFC"/>
<path d="M210.97 424.083C210.875 424.083 210.782 424.111 210.705 424.162C210.627 424.214 210.568 424.287 210.536 424.371C209.72 426.44 208.255 428.223 206.337 429.483C204.419 430.742 202.139 431.417 199.804 431.417C197.468 431.417 195.189 430.742 193.271 429.483C191.353 428.223 189.888 426.44 189.072 424.371C189.04 424.287 188.981 424.214 188.903 424.162C188.826 424.111 188.733 424.083 188.638 424.083V424.083C188.564 424.083 188.491 424.1 188.425 424.132C188.36 424.164 188.303 424.211 188.261 424.268C188.218 424.326 188.191 424.392 188.182 424.461C188.173 424.531 188.181 424.601 188.207 424.667C189.088 426.903 190.671 428.83 192.744 430.191C194.817 431.552 197.28 432.282 199.804 432.282C202.328 432.282 204.791 431.552 206.864 430.191C208.937 428.83 210.52 426.903 211.401 424.667C211.427 424.601 211.435 424.531 211.426 424.461C211.416 424.392 211.389 424.326 211.347 424.268C211.305 424.211 211.248 424.164 211.182 424.132C211.117 424.1 211.044 424.083 210.97 424.083V424.083Z" fill="#9570EE"/>
<path d="M199.772 421.528C199.627 421.528 199.487 421.474 199.384 421.376C199.281 421.279 199.223 421.147 199.223 421.009V413.387C199.223 413.249 199.281 413.117 199.384 413.019C199.487 412.922 199.627 412.867 199.772 412.867C199.918 412.867 200.058 412.922 200.161 413.019C200.264 413.117 200.322 413.249 200.322 413.387V421.009C200.322 421.147 200.264 421.279 200.161 421.376C200.058 421.474 199.918 421.528 199.772 421.528Z" fill="#9570EE"/>
<path d="M199.377 420.734C199.423 420.682 199.48 420.639 199.544 420.607C199.609 420.576 199.679 420.557 199.75 420.551C199.822 420.545 199.895 420.553 199.964 420.573C200.032 420.594 200.096 420.627 200.151 420.671L205.125 424.646C205.18 424.69 205.226 424.744 205.259 424.805C205.292 424.865 205.313 424.931 205.319 424.999C205.325 425.067 205.317 425.136 205.295 425.201C205.273 425.266 205.238 425.326 205.191 425.378C205.145 425.431 205.088 425.474 205.024 425.505C204.96 425.536 204.889 425.556 204.818 425.561C204.746 425.567 204.673 425.559 204.604 425.539C204.536 425.518 204.472 425.485 204.417 425.441L199.443 421.466C199.388 421.422 199.342 421.368 199.309 421.308C199.276 421.247 199.255 421.181 199.249 421.113C199.243 421.045 199.251 420.976 199.273 420.911C199.295 420.846 199.33 420.786 199.377 420.734Z" fill="#9570EE"/>
<path d="M199.896 410.497H199.484V411.535H199.896V410.497Z" fill="#CED6FF"/>
<path d="M199.896 429.467H199.484V430.506H199.896V429.467Z" fill="#CED6FF"/>
<path d="M189.105 420.308V420.698H190.204V420.308H189.105Z" fill="#CED6FF"/>
<path d="M209.173 420.308V420.698H210.272V420.308H209.173Z" fill="#CED6FF"/>
<path d="M192.352 413.291L192.06 413.566L192.837 414.3L193.129 414.025L192.352 413.291Z" fill="#CED6FF"/>
<path d="M206.54 426.705L206.248 426.98L207.025 427.715L207.317 427.439L206.54 426.705Z" fill="#CED6FF"/>
<path d="M192.06 427.44L192.351 427.715L193.128 426.981L192.837 426.705L192.06 427.44Z" fill="#CED6FF"/>
<path d="M206.251 414.025L206.542 414.3L207.319 413.566L207.028 413.291L206.251 414.025Z" fill="#CED6FF"/>
<path d="M217.688 336.581H183.988C181.367 336.581 179.242 338.589 179.242 341.067V374.716C179.242 377.194 181.367 379.202 183.988 379.202H217.688C220.309 379.202 222.434 377.194 222.434 374.716V341.067C222.434 338.589 220.309 336.581 217.688 336.581Z" fill="#6DB8FF"/>
<path d="M177.166 374.828L180.736 372.473L182.338 366.92L180.558 366.582L179.49 368.602L180.558 359.012L178.778 359.349L176.999 368.602L174.851 372.979L176.809 374.158" fill="#F7D3A9"/>
<path d="M198.24 384.81L198.715 380.773L203.933 375.84L205.12 377.398L203.222 379.418L213.189 377.175V379.195L203.933 382.57L202.035 385.711L198.24 384.81Z" fill="#F7D3A9"/>
<path d="M133.247 484.637L152.659 574.406L167.35 572.918L157.38 569.447L161.052 568.455L155.807 484.637H133.247Z" fill="#544DB8"/>
<path d="M164.203 483.149C164.203 483.149 188.861 504.973 185.188 531.257C180.992 552.089 172.071 560.023 172.071 560.023L169.448 559.527L173.513 569.693L161.703 557.793C161.703 557.793 176.26 538.822 167.213 519.109C161.473 507.129 151.238 497.587 138.487 492.327C138.487 492.327 155.408 477.819 156.589 478.193C159.224 479.708 161.766 481.363 164.203 483.149V483.149Z" fill="#544DB8"/>
<path d="M174.694 371.422C174.694 371.422 134.164 417.93 129.443 427.24C129.443 427.24 127.474 430.586 127.474 440.26C127.474 449.933 131.017 485.639 131.017 485.639L172.335 487.872C172.335 487.872 158.954 444.351 158.561 443.235C155.195 438.932 150.532 435.69 145.183 433.936L179.811 374.791L174.694 371.422Z" fill="#FF8B40"/>
<path d="M149.031 429.434C149.031 429.434 150.753 434.263 151.703 437.181C151.703 437.181 143.269 437.012 140.3 433.307L143.448 426.178L149.031 429.434Z" fill="#F7D3A9"/>
<path d="M155.444 414.345C155.444 414.345 157.938 428.076 155.444 431.197C152.95 434.317 144.398 429.011 140.833 424.018C137.268 419.026 136.559 407.789 142.615 406.855C145.356 406.369 148.19 406.868 150.563 408.253C152.935 409.638 154.676 411.811 155.444 414.345V414.345Z" fill="#F7D3A9"/>
<path d="M151.61 439.764C151.61 439.764 184.104 420.44 186.724 416.476C189.344 412.512 196.682 383.034 196.682 383.034L202.972 384.522C202.972 384.522 199.303 417.468 198.256 420.936C197.21 424.405 165.235 456.608 157.9 456.608C150.564 456.608 147.941 447.69 151.61 439.764Z" fill="#FF8B40"/>
<path d="M137.949 407.467C139.332 405.805 141.167 404.531 143.257 403.78C145.348 403.03 147.616 402.831 149.817 403.207C157.408 404.552 159.308 402.981 159.308 402.981C159.308 402.981 157.661 410.832 152.426 412.629C147.191 414.425 145.782 413.973 145.782 413.973C147.253 415.335 148.461 416.929 149.353 418.683C150.064 420.703 146.98 416.216 145.782 417.787C144.585 419.358 145.782 422.72 148.155 422.497C150.528 422.273 149.103 424.067 148.155 425.872C147.207 427.676 145.782 429.911 144.357 429.247C140.459 427.392 137.479 424.173 136.051 420.274C134.153 414.646 133.678 409.264 137.949 407.467Z" fill="#544DB8"/>
<path d="M398.04 265.471H305.49C303.524 265.471 301.93 266.977 301.93 268.835V420.926C301.93 422.784 303.524 424.291 305.49 424.291H398.04C400.006 424.291 401.6 422.784 401.6 420.926V268.835C401.6 266.977 400.006 265.471 398.04 265.471Z" fill="#E3EAFF"/>
<path d="M380.716 278.257H321.864C320.291 278.257 319.016 279.462 319.016 280.949V289.023C319.016 290.51 320.291 291.716 321.864 291.716H380.716C382.289 291.716 383.564 290.51 383.564 289.023V280.949C383.564 279.462 382.289 278.257 380.716 278.257Z" fill="#6DB8FF"/>
<path d="M340.612 366.528H327.794C326.347 366.527 324.96 365.983 323.937 365.016C322.914 364.049 322.339 362.737 322.339 361.369V361.369C322.339 360.002 322.914 358.69 323.937 357.723C324.96 356.756 326.347 356.213 327.794 356.213H340.612C341.328 356.213 342.038 356.346 342.7 356.605C343.362 356.864 343.963 357.243 344.47 357.722C344.977 358.201 345.379 358.77 345.653 359.395C345.928 360.021 346.069 360.692 346.069 361.369V361.369C346.069 362.047 345.928 362.717 345.653 363.343C345.379 363.969 344.977 364.538 344.47 365.017C343.964 365.496 343.362 365.876 342.7 366.135C342.038 366.394 341.328 366.528 340.612 366.528Z" fill="#6DB8FF"/>
<path d="M377.631 366.528H364.814C363.367 366.527 361.979 365.983 360.956 365.016C359.934 364.049 359.359 362.737 359.359 361.369C359.359 360.002 359.934 358.69 360.957 357.723C361.979 356.756 363.367 356.213 364.814 356.213H377.631C378.348 356.213 379.057 356.346 379.72 356.605C380.382 356.864 380.983 357.243 381.49 357.722C381.997 358.201 382.399 358.77 382.673 359.395C382.947 360.021 383.089 360.692 383.089 361.369V361.369C383.089 362.047 382.947 362.717 382.673 363.343C382.399 363.969 381.997 364.538 381.49 365.017C380.983 365.496 380.382 365.876 379.72 366.135C379.058 366.394 378.348 366.528 377.631 366.528Z" fill="#9570EE"/>
<path d="M386.884 305.177H317.591V315.497H386.884V305.177Z" fill="#F9FBFC"/>
<path d="M386.884 322.673H317.591V332.993H386.884V322.673Z" fill="#F9FBFC"/>
<path d="M372.41 339.499H332.542V341.853H372.41V339.499Z" fill="#CDD4FF"/>
<path d="M606.99 394.907H482.401C478.72 394.906 475.189 393.523 472.586 391.062C469.983 388.601 468.521 385.263 468.521 381.783V381.783C468.521 378.303 469.983 374.965 472.586 372.504C475.189 370.043 478.72 368.66 482.401 368.659H606.99C610.671 368.66 614.202 370.043 616.805 372.504C619.408 374.965 620.87 378.303 620.87 381.783V381.783C620.87 385.263 619.408 388.601 616.805 391.062C614.202 393.523 610.671 394.906 606.99 394.907V394.907Z" fill="#9570EE"/>
<path d="M499.133 283.641H421.528C418.507 283.641 415.61 282.507 413.474 280.488C411.337 278.469 410.137 275.731 410.136 272.875V272.875C410.136 271.461 410.431 270.06 411.003 268.754C411.576 267.447 412.415 266.26 413.473 265.26C414.531 264.26 415.786 263.467 417.169 262.926C418.551 262.384 420.032 262.106 421.528 262.106H499.127C502.148 262.107 505.045 263.241 507.181 265.261C509.317 267.281 510.517 270.019 510.517 272.875V272.875C510.517 275.729 509.318 278.467 507.183 280.486C505.048 282.505 502.153 283.64 499.133 283.641Z" fill="#E3EAFF"/>
<path d="M440.042 272.875C440.042 273.542 439.833 274.195 439.441 274.75C439.048 275.305 438.491 275.738 437.838 275.993C437.186 276.249 436.468 276.315 435.775 276.185C435.083 276.055 434.447 275.733 433.947 275.261C433.448 274.789 433.108 274.188 432.97 273.533C432.832 272.879 432.903 272.2 433.173 271.583C433.443 270.967 433.901 270.44 434.488 270.069C435.075 269.698 435.766 269.5 436.472 269.5C437.419 269.5 438.327 269.855 438.997 270.488C439.666 271.121 440.042 271.98 440.042 272.875V272.875Z" fill="#FFC240"/>
<path d="M464.486 272.875C464.486 273.542 464.276 274.195 463.884 274.75C463.492 275.305 462.934 275.738 462.282 275.993C461.629 276.249 460.912 276.315 460.219 276.185C459.526 276.055 458.89 275.733 458.391 275.261C457.891 274.789 457.551 274.188 457.414 273.533C457.276 272.879 457.347 272.2 457.617 271.583C457.887 270.967 458.345 270.44 458.932 270.069C459.519 269.698 460.209 269.5 460.915 269.5C461.862 269.5 462.771 269.855 463.44 270.488C464.11 271.121 464.486 271.98 464.486 272.875Z" fill="#90C240"/>
<path d="M487.029 272.875C487.029 273.542 486.82 274.195 486.427 274.75C486.035 275.305 485.477 275.738 484.825 275.993C484.173 276.249 483.455 276.315 482.762 276.185C482.069 276.055 481.433 275.733 480.934 275.261C480.435 274.789 480.095 274.188 479.957 273.533C479.819 272.879 479.89 272.2 480.16 271.583C480.43 270.967 480.888 270.44 481.475 270.069C482.062 269.698 482.752 269.5 483.459 269.5C484.406 269.5 485.314 269.855 485.983 270.488C486.653 271.121 487.029 271.98 487.029 272.875Z" fill="#EB4F24"/>
<path d="M200.341 368.711C205.129 368.711 209.011 365.042 209.011 360.515C209.011 355.988 205.129 352.319 200.341 352.319C195.552 352.319 191.67 355.988 191.67 360.515C191.67 365.042 195.552 368.711 200.341 368.711Z" fill="white"/>
<path d="M209.33 350.616H207.803L205.606 347.692C205.52 347.579 205.407 347.486 205.275 347.422C205.144 347.358 204.998 347.324 204.85 347.324H196.089C195.942 347.324 195.796 347.357 195.666 347.421C195.535 347.486 195.422 347.578 195.337 347.692L193.14 350.616H191.61C190.465 350.619 189.368 351.05 188.559 351.816C187.749 352.581 187.293 353.617 187.29 354.699V366.582C187.293 367.664 187.749 368.701 188.559 369.466C189.368 370.231 190.465 370.663 191.61 370.666H209.324C210.469 370.663 211.566 370.231 212.375 369.466C213.185 368.701 213.641 367.664 213.645 366.582V354.699C213.641 353.618 213.186 352.582 212.377 351.817C211.569 351.052 210.474 350.62 209.33 350.616V350.616ZM200.473 366.559C199.213 366.559 197.982 366.206 196.934 365.544C195.887 364.883 195.07 363.942 194.588 362.842C194.106 361.742 193.98 360.532 194.226 359.364C194.472 358.196 195.078 357.123 195.969 356.281C196.86 355.439 197.995 354.866 199.23 354.633C200.466 354.401 201.746 354.52 202.91 354.976C204.074 355.432 205.069 356.203 205.768 357.193C206.468 358.184 206.842 359.348 206.842 360.538C206.842 362.135 206.171 363.666 204.976 364.796C203.782 365.925 202.162 366.559 200.473 366.559V366.559Z" fill="#9570EE"/>
<path d="M200.473 364.521C202.798 364.521 204.683 362.739 204.683 360.541C204.683 358.343 202.798 356.561 200.473 356.561C198.147 356.561 196.262 358.343 196.262 360.541C196.262 362.739 198.147 364.521 200.473 364.521Z" fill="#6DB8FF"/>
<path d="M445.263 305.688H510.404C511.894 305.688 513.323 306.248 514.376 307.243C515.429 308.239 516.021 309.589 516.021 310.998V347.801C516.021 349.209 515.429 350.56 514.376 351.556C513.323 352.551 511.894 353.111 510.404 353.111H445.261C444.523 353.111 443.793 352.973 443.112 352.706C442.43 352.44 441.811 352.048 441.29 351.555C440.769 351.062 440.355 350.477 440.073 349.833C439.791 349.189 439.646 348.498 439.647 347.801V310.998C439.647 309.589 440.239 308.239 441.292 307.243C442.345 306.248 443.774 305.688 445.263 305.688V305.688Z" fill="#E3EAFF"/>
<path d="M477.905 329.031H477.757C477.416 329.032 477.08 328.949 476.782 328.792L447.345 313.332C447.105 313.216 446.892 313.055 446.719 312.86C446.546 312.664 446.417 312.438 446.338 312.194C446.26 311.95 446.234 311.694 446.262 311.441C446.291 311.187 446.373 310.942 446.504 310.719C446.635 310.497 446.812 310.301 447.025 310.145C447.237 309.988 447.481 309.873 447.742 309.808C448.002 309.742 448.274 309.727 448.541 309.763C448.808 309.798 449.064 309.885 449.295 310.016L477.831 325.004L506.37 310.016C506.601 309.885 506.857 309.798 507.124 309.763C507.391 309.727 507.663 309.742 507.923 309.808C508.184 309.873 508.427 309.988 508.64 310.145C508.853 310.301 509.03 310.497 509.161 310.719C509.292 310.942 509.374 311.187 509.402 311.441C509.431 311.694 509.405 311.95 509.327 312.194C509.248 312.438 509.119 312.664 508.946 312.86C508.773 313.055 508.56 313.216 508.32 313.332L478.88 328.792C478.583 328.95 478.247 329.032 477.905 329.031V329.031Z" fill="#FD4940"/>
<path d="M623.007 232.496H538.287C535.535 232.496 533.304 234.605 533.304 237.206V343.538C533.304 346.139 535.535 348.248 538.287 348.248H623.007C625.759 348.248 627.989 346.139 627.989 343.538V237.206C627.989 234.605 625.759 232.496 623.007 232.496Z" fill="#544DB8"/>
<path d="M554.458 248.011H548.141C547.806 248.011 547.534 247.492 547.534 246.858C547.534 246.222 547.809 245.706 548.141 245.706H554.458C554.793 245.706 555.065 246.225 555.065 246.858C555.065 247.494 554.793 248.011 554.458 248.011Z" fill="#00CCFF"/>
<path d="M593.515 248.011H557.43C557.094 248.011 556.823 247.492 556.823 246.858C556.823 246.222 557.097 245.706 557.43 245.706H593.515C593.851 245.706 594.122 246.225 594.122 246.858C594.122 247.494 593.851 248.011 593.515 248.011Z" fill="#00CCFF"/>
<path d="M568.94 252.775H557.43C557.094 252.775 556.823 252.256 556.823 251.622C556.823 250.984 557.097 250.47 557.43 250.47H568.94C569.275 250.47 569.547 250.989 569.547 251.622C569.547 252.256 569.289 252.775 568.94 252.775Z" fill="#FF56A9"/>
<path d="M587.874 252.775H571.283C570.948 252.775 570.676 252.256 570.676 251.622C570.676 250.984 570.95 250.47 571.283 250.47H587.874C588.209 250.47 588.481 250.989 588.481 251.622C588.481 252.256 588.209 252.775 587.874 252.775Z" fill="#E3EAFF"/>
<path d="M593.515 275.983H557.43C557.094 275.983 556.823 275.463 556.823 274.83C556.823 274.194 557.097 273.677 557.43 273.677H593.515C593.851 273.677 594.122 274.196 594.122 274.83C594.122 275.466 593.851 275.983 593.515 275.983Z" fill="#E3EAFF"/>
<path d="M554.458 280.749H548.141C547.806 280.749 547.534 280.23 547.534 279.597C547.534 278.96 547.809 278.444 548.141 278.444H554.458C554.793 278.444 555.065 278.963 555.065 279.597C555.065 280.233 554.793 280.749 554.458 280.749Z" fill="#00CCFF"/>
<path d="M568.94 280.749H557.43C557.094 280.749 556.823 280.23 556.823 279.597C556.823 278.96 557.097 278.444 557.43 278.444H568.94C569.275 278.444 569.547 278.963 569.547 279.597C569.547 280.233 569.289 280.749 568.94 280.749Z" fill="#E3EAFF"/>
<path d="M587.874 280.749H571.283C570.948 280.749 570.676 280.23 570.676 279.597C570.676 278.96 570.95 278.444 571.283 278.444H587.874C588.209 278.444 588.481 278.963 588.481 279.597C588.481 280.233 588.209 280.749 587.874 280.749Z" fill="#FF56A9"/>
<path d="M602.466 257.544H557.424C557.089 257.544 556.817 257.025 556.817 256.392C556.817 255.753 557.092 255.236 557.424 255.236H602.466C602.801 255.236 603.073 255.756 603.073 256.392C603.07 257.028 602.796 257.544 602.466 257.544Z" fill="#FF56A9"/>
<path d="M593.027 260.003H582.54C582.186 260.003 581.898 260.275 581.898 260.61V261.701C581.898 262.036 582.186 262.308 582.54 262.308H593.027C593.381 262.308 593.669 262.036 593.669 261.701V260.61C593.669 260.275 593.381 260.003 593.027 260.003Z" fill="#00CCFF"/>
<path d="M572.39 262.311H557.43C557.094 262.311 556.823 261.792 556.823 261.156C556.823 260.52 557.097 260.003 557.43 260.003H572.39C572.725 260.003 572.997 260.522 572.997 261.156C572.997 261.794 572.725 262.311 572.39 262.311Z" fill="#E3EAFF"/>
<path d="M580.352 262.311H574.419C574.084 262.311 573.812 261.792 573.812 261.156C573.812 260.52 574.087 260.003 574.419 260.003H580.352C580.687 260.003 580.959 260.522 580.959 261.156C580.959 261.794 580.687 262.311 580.352 262.311Z" fill="#00CCFF"/>
<path d="M554.458 266.917H548.141C547.806 266.917 547.534 266.397 547.534 265.764C547.534 265.128 547.809 264.611 548.141 264.611H554.458C554.793 264.611 555.065 265.13 555.065 265.764C555.065 266.4 554.793 266.917 554.458 266.917Z" fill="#E3EAFF"/>
<path d="M602.466 266.917H557.424C557.089 266.917 556.817 266.397 556.817 265.764C556.817 265.128 557.092 264.611 557.424 264.611H602.466C602.801 264.611 603.073 265.13 603.073 265.764C603.07 266.4 602.796 266.917 602.466 266.917Z" fill="#E3EAFF"/>
<path d="M554.458 285.163H548.141C547.806 285.163 547.534 284.644 547.534 284.01C547.534 283.374 547.809 282.857 548.141 282.857H554.458C554.793 282.857 555.065 283.377 555.065 284.01C555.065 284.646 554.793 285.163 554.458 285.163Z" fill="#E3EAFF"/>
<path d="M597.426 282.857H582.653C582.236 282.857 581.898 283.177 581.898 283.571V284.449C581.898 284.843 582.236 285.163 582.653 285.163H597.426C597.844 285.163 598.182 284.843 598.182 284.449V283.571C598.182 283.177 597.844 282.857 597.426 282.857Z" fill="#E3EAFF"/>
<path d="M572.39 285.163H557.43C557.094 285.163 556.823 284.644 556.823 284.01C556.823 283.374 557.097 282.857 557.43 282.857H572.39C572.725 282.857 572.997 283.377 572.997 284.01C572.997 284.646 572.725 285.163 572.39 285.163Z" fill="#E3EAFF"/>
<path d="M580.352 285.163H574.419C574.084 285.163 573.812 284.644 573.812 284.01C573.812 283.374 574.087 282.857 574.419 282.857H580.352C580.687 282.857 580.959 283.377 580.959 284.01C580.959 284.646 580.687 285.163 580.352 285.163Z" fill="#E3EAFF"/>
<path d="M554.458 289.771H548.141C547.806 289.771 547.534 289.252 547.534 288.618C547.534 287.98 547.809 287.466 548.141 287.466H554.458C554.793 287.466 555.065 287.985 555.065 288.618C555.065 289.254 554.793 289.771 554.458 289.771Z" fill="#FFC359"/>
<path d="M565.227 289.771H557.43C557.094 289.771 556.823 289.252 556.823 288.618C556.823 287.98 557.097 287.466 557.43 287.466H565.227C565.562 287.466 565.834 287.985 565.834 288.618C565.834 289.254 565.562 289.771 565.227 289.771Z" fill="#00CCFF"/>
<path d="M548.141 271.683C547.806 271.683 547.534 271.164 547.534 270.531C547.534 269.894 547.809 269.378 548.141 269.378H554.458C554.793 269.378 555.065 269.897 555.065 270.531C555.065 271.167 554.79 271.683 554.458 271.683" fill="#00CCFF"/>
<path d="M599.497 269.378H582.7C582.257 269.378 581.898 269.717 581.898 270.136V270.925C581.898 271.344 582.257 271.683 582.7 271.683H599.497C599.94 271.683 600.299 271.344 600.299 270.925V270.136C600.299 269.717 599.94 269.378 599.497 269.378Z" fill="#E3EAFF"/>
<path d="M572.39 271.683H557.43C557.094 271.683 556.823 271.164 556.823 270.531C556.823 269.894 557.097 269.378 557.43 269.378H572.39C572.725 269.378 572.997 269.897 572.997 270.531C572.997 271.167 572.725 271.683 572.39 271.683Z" fill="#FFC359"/>
<path d="M580.352 271.683H574.419C574.084 271.683 573.812 271.164 573.812 270.531C573.812 269.894 574.087 269.378 574.419 269.378H580.352C580.687 269.378 580.959 269.897 580.959 270.531C580.959 271.167 580.687 271.683 580.352 271.683Z" fill="#FFC359"/>
<path d="M593.515 294.67H557.43C557.094 294.67 556.823 294.151 556.823 293.517C556.823 292.881 557.097 292.365 557.43 292.365H593.515C593.851 292.365 594.122 292.884 594.122 293.517C594.122 294.153 593.851 294.67 593.515 294.67Z" fill="#E3EAFF"/>
<path d="M568.94 299.437H557.43C557.094 299.437 556.823 298.917 556.823 298.284C556.823 297.648 557.097 297.131 557.43 297.131H568.94C569.275 297.131 569.547 297.65 569.547 298.284C569.547 298.92 569.289 299.437 568.94 299.437Z" fill="#E3EAFF"/>
<path d="M587.874 299.437H571.283C570.948 299.437 570.676 298.917 570.676 298.284C570.676 297.648 570.95 297.131 571.283 297.131H587.874C588.209 297.131 588.481 297.65 588.481 298.284C588.481 298.92 588.209 299.437 587.874 299.437Z" fill="#E3EAFF"/>
<path d="M593.515 322.642H557.43C557.094 322.642 556.823 322.122 556.823 321.489C556.823 320.853 557.097 320.336 557.43 320.336H593.515C593.851 320.336 594.122 320.855 594.122 321.489C594.122 322.128 593.851 322.642 593.515 322.642Z" fill="#E3EAFF"/>
<path d="M554.458 327.408H548.141C547.806 327.408 547.534 326.889 547.534 326.255C547.534 325.619 547.809 325.103 548.141 325.103H554.458C554.793 325.103 555.065 325.622 555.065 326.255C555.065 326.892 554.793 327.408 554.458 327.408Z" fill="#FF56A9"/>
<path d="M568.94 327.408H557.43C557.094 327.408 556.823 326.889 556.823 326.255C556.823 325.619 557.097 325.103 557.43 325.103H568.94C569.275 325.103 569.547 325.622 569.547 326.255C569.547 326.892 569.289 327.408 568.94 327.408Z" fill="#00CCFF"/>
<path d="M587.874 327.408H571.283C570.948 327.408 570.676 326.889 570.676 326.255C570.676 325.619 570.95 325.103 571.283 325.103H587.874C588.209 325.103 588.481 325.622 588.481 326.255C588.481 326.892 588.209 327.408 587.874 327.408Z" fill="#E3EAFF"/>
<path d="M554.458 304.203H548.141C547.806 304.203 547.534 303.684 547.534 303.051C547.534 302.412 547.809 301.898 548.141 301.898H554.458C554.793 301.898 555.065 302.417 555.065 303.051C555.065 303.687 554.793 304.203 554.458 304.203Z" fill="#FF56A9"/>
<path d="M589.646 301.898H557.556C557.151 301.898 556.823 302.208 556.823 302.591V303.51C556.823 303.893 557.151 304.203 557.556 304.203H589.646C590.051 304.203 590.379 303.893 590.379 303.51V302.591C590.379 302.208 590.051 301.898 589.646 301.898Z" fill="#FF56A9"/>
<path d="M554.458 308.97H548.141C547.806 308.97 547.534 308.451 547.534 307.815C547.534 307.179 547.809 306.662 548.141 306.662H554.458C554.793 306.662 555.065 307.181 555.065 307.815C555.065 308.453 554.793 308.97 554.458 308.97Z" fill="#E3EAFF"/>
<path d="M572.39 308.97H557.43C557.094 308.97 556.823 308.451 556.823 307.815C556.823 307.179 557.097 306.662 557.43 306.662H572.39C572.725 306.662 572.997 307.181 572.997 307.815C572.997 308.453 572.725 308.97 572.39 308.97Z" fill="#E3EAFF"/>
<path d="M580.352 308.97H574.419C574.084 308.97 573.812 308.451 573.812 307.815C573.812 307.179 574.087 306.662 574.419 306.662H580.352C580.687 306.662 580.959 307.181 580.959 307.815C580.959 308.453 580.687 308.97 580.352 308.97Z" fill="#E3EAFF"/>
<path d="M554.458 313.576H548.141C547.806 313.576 547.534 313.056 547.534 312.423C547.534 311.787 547.809 311.27 548.141 311.27H554.458C554.793 311.27 555.065 311.789 555.065 312.423C555.065 313.062 554.793 313.576 554.458 313.576Z" fill="#E3EAFF"/>
<path d="M557.647 311.27H598.253C598.472 311.27 598.681 311.352 598.836 311.498C598.99 311.644 599.077 311.842 599.077 312.049V312.799C599.077 313.006 598.99 313.204 598.836 313.35C598.681 313.496 598.472 313.578 598.253 313.578H557.647C557.428 313.578 557.218 313.496 557.064 313.35C556.909 313.204 556.823 313.006 556.823 312.799V312.049C556.823 311.842 556.909 311.644 557.064 311.498C557.218 311.352 557.428 311.27 557.647 311.27V311.27Z" fill="#E3EAFF"/>
<path d="M554.458 331.822H548.141C547.806 331.822 547.534 331.302 547.534 330.669C547.534 330.033 547.809 329.516 548.141 329.516H554.458C554.793 329.516 555.065 330.036 555.065 330.669C555.065 331.305 554.793 331.822 554.458 331.822Z" fill="#E3EAFF"/>
<path d="M602.42 331.822H582.505C582.17 331.822 581.898 331.302 581.898 330.669C581.898 330.033 582.172 329.516 582.505 329.516H602.42C602.755 329.516 603.027 330.036 603.027 330.669C603.027 331.305 602.755 331.822 602.42 331.822Z" fill="#E3EAFF"/>
<path d="M572.39 331.822H557.43C557.094 331.822 556.823 331.302 556.823 330.669C556.823 330.033 557.097 329.516 557.43 329.516H572.39C572.725 329.516 572.997 330.036 572.997 330.669C572.997 331.305 572.725 331.822 572.39 331.822Z" fill="#E3EAFF"/>
<path d="M580.352 331.822H574.419C574.084 331.822 573.812 331.302 573.812 330.669C573.812 330.033 574.087 329.516 574.419 329.516H580.352C580.687 329.516 580.959 330.036 580.959 330.669C580.959 331.305 580.687 331.822 580.352 331.822Z" fill="#E3EAFF"/>
<path d="M584.07 334.125H557.49C557.121 334.125 556.823 334.407 556.823 334.755V335.799C556.823 336.147 557.121 336.43 557.49 336.43H584.07C584.439 336.43 584.738 336.147 584.738 335.799V334.755C584.738 334.407 584.439 334.125 584.07 334.125Z" fill="#FFC359"/>
<path d="M600.552 316.037H582.724C582.268 316.037 581.898 316.387 581.898 316.818V317.561C581.898 317.992 582.268 318.342 582.724 318.342H600.552C601.008 318.342 601.379 317.992 601.379 317.561V316.818C601.379 316.387 601.008 316.037 600.552 316.037Z" fill="#FF56A9"/>
<path d="M572.39 318.342H557.43C557.094 318.342 556.823 317.823 556.823 317.19C556.823 316.553 557.097 316.037 557.43 316.037H572.39C572.725 316.037 572.997 316.556 572.997 317.19C572.997 317.826 572.725 318.342 572.39 318.342Z" fill="#FFC359"/>
<path d="M580.352 318.342H574.419C574.084 318.342 573.812 317.823 573.812 317.19C573.812 316.553 574.087 316.037 574.419 316.037H580.352C580.687 316.037 580.959 316.556 580.959 317.19C580.959 317.826 580.687 318.342 580.352 318.342Z" fill="#FFC359"/>
<path d="M620.357 253.731C631.366 253.731 640.291 245.294 640.291 234.887C640.291 224.48 631.366 216.044 620.357 216.044C609.348 216.044 600.423 224.48 600.423 234.887C600.423 245.294 609.348 253.731 620.357 253.731Z" fill="#FF4DD1"/>
<path d="M618.912 233.119L610.994 235.861L618.912 238.579V241.391L607.594 237.323V234.399L618.912 230.334V233.119Z" fill="#F9FBFC"/>
<path d="M621.497 230.334L632.815 234.399V237.323L621.497 241.391V238.579L629.415 235.861L621.497 233.119V230.334Z" fill="#F9FBFC"/>
<path d="M500.633 569.551C510.521 563.218 513.106 550.507 506.407 541.16C499.707 531.813 486.26 529.369 476.372 535.702C466.484 542.035 463.899 554.746 470.599 564.093C477.298 573.44 490.745 575.884 500.633 569.551Z" fill="#FFC240"/>
<path d="M499.918 551.442C499.933 552.631 499.715 553.812 499.276 554.926C498.912 555.889 498.285 556.744 497.457 557.403C496.689 557.998 495.723 558.316 494.73 558.301C494.085 558.313 493.45 558.151 492.898 557.834C492.389 557.545 491.989 557.113 491.753 556.598H491.528C491.068 557.143 490.483 557.579 489.816 557.875C489.149 558.17 488.419 558.316 487.683 558.301C486.965 558.338 486.246 558.232 485.575 557.989C484.903 557.747 484.292 557.374 483.783 556.894C483.288 556.372 482.908 555.763 482.663 555.102C482.418 554.441 482.313 553.741 482.355 553.041C482.318 552.21 482.465 551.381 482.789 550.606C483.112 549.832 483.603 549.131 484.23 548.547C484.886 547.971 485.656 547.523 486.496 547.23C487.337 546.937 488.23 546.805 489.125 546.842C490.012 546.849 490.897 546.922 491.772 547.06C492.581 547.168 493.379 547.342 494.156 547.579L493.835 554.041C493.835 555.266 494.189 555.879 494.898 555.879C495.493 555.879 495.968 555.467 496.323 554.643C496.715 553.607 496.896 552.511 496.856 551.411C496.883 550.103 496.561 548.809 495.919 547.649C495.323 546.589 494.405 545.722 493.283 545.159C492.085 544.571 490.751 544.276 489.402 544.3C487.693 544.261 486.003 544.639 484.494 545.398C483.113 546.121 481.999 547.225 481.3 548.563C480.538 550.05 480.161 551.688 480.201 553.34C480.129 554.356 480.274 555.376 480.629 556.338C480.983 557.299 481.539 558.184 482.264 558.937C483.071 559.625 484.016 560.152 485.044 560.487C486.071 560.822 487.159 560.958 488.243 560.887C489.336 560.878 490.427 560.775 491.5 560.578C492.691 560.369 493.86 560.066 494.997 559.672V562.211C492.891 563.032 490.631 563.441 488.353 563.413C485.333 563.587 482.361 562.638 480.07 560.77C479.053 559.813 478.263 558.663 477.751 557.396C477.239 556.129 477.016 554.775 477.098 553.421C477.07 551.355 477.591 549.316 478.614 547.491C479.603 545.738 481.102 544.289 482.934 543.316C484.906 542.282 487.133 541.76 489.388 541.803C491.294 541.77 493.18 542.178 494.881 542.992C496.45 543.744 497.749 544.918 498.614 546.367C499.512 547.921 499.961 549.672 499.918 551.442V551.442ZM485.598 553.096C485.598 554.955 486.4 555.884 488.004 555.884C488.373 555.905 488.742 555.839 489.077 555.693C489.413 555.546 489.705 555.323 489.927 555.043C490.448 554.219 490.724 553.275 490.723 552.315L490.904 549.394C490.375 549.292 489.835 549.243 489.295 549.248C488.789 549.222 488.283 549.302 487.813 549.481C487.343 549.661 486.921 549.936 486.576 550.287C485.89 551.075 485.541 552.077 485.598 553.096Z" fill="white"/>
<path d="M379.84 199H244.186C241.546 198.971 238.927 199.437 236.479 200.371C234.032 201.306 231.805 202.69 229.927 204.444C228.05 206.198 226.559 208.287 225.542 210.589C224.525 212.892 224.001 215.362 224.001 217.858C224.001 220.353 224.525 222.823 225.542 225.126C226.559 227.428 228.05 229.517 229.927 231.271C231.805 233.025 234.032 234.409 236.479 235.344C238.927 236.278 241.546 236.744 244.186 236.715H254.161L263.801 245.83L273.444 236.715H379.84C385.09 236.657 390.104 234.644 393.795 231.114C397.486 227.584 399.556 222.821 399.556 217.858C399.556 212.894 397.486 208.131 393.795 204.601C390.104 201.071 385.09 199.058 379.84 199V199Z" fill="#9570EE"/>
<path d="M341.024 223.869H251.763C251.171 223.869 250.603 223.647 250.184 223.251C249.765 222.855 249.53 222.318 249.53 221.758V221.758C249.531 221.199 249.767 220.663 250.185 220.268C250.604 219.872 251.171 219.65 251.763 219.65H341.024C341.615 219.651 342.182 219.873 342.6 220.268C343.018 220.664 343.253 221.199 343.254 221.758V221.758C343.254 222.318 343.019 222.854 342.601 223.25C342.183 223.646 341.615 223.868 341.024 223.869Z" fill="white"/>
<path d="M313.128 212.274H251.76C251.168 212.274 250.6 212.052 250.181 211.656C249.763 211.26 249.527 210.723 249.527 210.164C249.528 209.604 249.764 209.068 250.182 208.673C250.601 208.278 251.169 208.056 251.76 208.056H313.128C313.719 208.056 314.286 208.278 314.705 208.673C315.123 209.068 315.358 209.605 315.358 210.164C315.358 210.441 315.301 210.715 315.189 210.971C315.077 211.227 314.913 211.46 314.706 211.656C314.498 211.852 314.252 212.008 313.982 212.114C313.711 212.22 313.421 212.274 313.128 212.274Z" fill="white"/>
<path d="M565.251 437.952C565.251 437.952 563.59 442.607 562.672 445.424C562.672 445.424 570.808 445.26 573.658 441.688L570.624 434.813L565.251 437.952Z" fill="#F7D3A9"/>
<path d="M564.029 566.334L564.724 569.263L569.215 569.501L568.267 565.913L564.029 566.334Z" fill="#F79A74"/>
<path d="M564.724 569.252C564.724 569.252 557.199 572.96 557.262 573.198C557.325 573.437 569.973 572.183 569.973 572.183L569.215 569.494L564.724 569.252Z" fill="#544DB8"/>
<path d="M601.972 560.425L603.735 562.923L608.017 561.624L605.765 558.6L601.972 560.425Z" fill="#F79A74"/>
<path d="M603.741 562.93C603.741 562.93 598.132 568.948 598.281 569.161C598.429 569.374 609.755 563.888 609.755 563.888L608.022 561.635L603.741 562.93Z" fill="#544DB8"/>
<path d="M555.68 488.915C555.68 488.915 542.771 528.731 563.268 567.11H569.341C569.341 567.11 557.199 523.71 572.376 488.557L555.68 488.915Z" fill="#FFC240"/>
<path d="M566.883 490.328C566.883 490.328 568.88 531.927 601.821 561.57L607.542 559.641C607.542 559.641 580.678 522.617 582.48 484.686L566.883 490.328Z" fill="#FFC240"/>
<path d="M560.972 396.589L560.989 394.136C560.989 394.028 560.975 393.921 560.945 393.816L560.451 392.061L558.97 392.417L557.46 391.101C557.313 390.971 557.135 390.876 556.942 390.823C556.748 390.77 556.544 390.761 556.347 390.797C556.149 390.833 555.963 390.912 555.804 391.028C555.644 391.145 555.516 391.295 555.43 391.467C554.914 392.438 554.523 393.464 554.266 394.523C554.235 394.703 554.249 394.887 554.306 395.061C554.362 395.235 554.461 395.394 554.592 395.527L556.899 397.916C557.062 398.084 557.271 398.205 557.504 398.266C557.736 398.327 557.981 398.326 558.212 398.261L560.052 397.742C560.316 397.669 560.549 397.517 560.714 397.309C560.88 397.102 560.971 396.849 560.972 396.589Z" fill="#F79A74"/>
<path d="M583.227 450.434C583.227 450.434 566.399 433.388 565.293 427.006C564.186 420.625 561.722 396.89 561.722 396.89L556.534 397.838C556.534 397.838 554.752 431.789 556.328 435.696C557.905 439.603 568.02 459.529 574.611 461.37C581.203 463.21 585.831 457.068 583.227 450.434Z" fill="#FF4F72"/>
<path d="M559.855 422.307C559.855 422.307 556.056 434.25 558.462 437.253C560.868 440.257 569.723 437.536 573.153 432.72C576.583 427.905 577.273 417.073 571.437 416.17C565.6 415.266 561.228 417.499 559.855 422.307Z" fill="#F79A74"/>
<path d="M582.623 492.145C582.623 492.145 586.037 457.709 586.037 448.383C586.037 447.958 586.037 447.558 586.02 447.155C585.14 445.103 583.505 443.419 581.417 442.415C579.328 441.41 576.926 441.152 574.653 441.688C570.439 442.645 566.315 443.925 562.321 445.515L562.294 445.481C559.866 447.036 557.755 448.991 556.059 451.252C550.586 463.832 550.182 477.872 554.922 490.714L582.623 492.145Z" fill="#FF4F72"/>
<path d="M534.395 398.352L533.953 395.935C533.934 395.828 533.9 395.724 533.851 395.626L533.027 393.98L531.637 394.577L529.904 393.538C529.735 393.437 529.543 393.375 529.344 393.356C529.145 393.337 528.944 393.363 528.757 393.431C528.57 393.498 528.403 393.607 528.268 393.747C528.134 393.887 528.036 394.055 527.982 394.237C527.655 395.278 527.461 396.353 527.405 397.438C527.409 397.62 527.456 397.8 527.544 397.962C527.632 398.125 527.759 398.266 527.913 398.375L530.627 400.34C530.818 400.479 531.046 400.565 531.286 400.587C531.526 400.609 531.768 400.567 531.983 400.465L533.7 399.653C533.949 399.536 534.152 399.346 534.277 399.112C534.402 398.877 534.444 398.611 534.395 398.352V398.352Z" fill="#F79A74"/>
<path d="M566.306 447.664C566.306 447.664 546.573 433.676 544.296 427.577C542.019 421.479 535.188 398.521 535.188 398.521L530.245 400.315C530.245 400.315 534.799 434.034 537.075 437.62C539.352 441.205 553.005 459.142 559.844 459.859C566.682 460.575 570.099 453.763 566.306 447.664Z" fill="#FF4F72"/>
<path d="M573.895 416.097C573.895 416.097 563.777 412.034 558.967 420.402C556.438 425.664 564.535 420.643 566.053 422.315C567.572 423.987 564.029 427.339 565.04 428.546C566.051 429.753 567.822 426.394 568.836 428.307C569.849 430.22 567.317 430.459 565.54 432.611C563.763 434.764 567.059 437.871 564.529 439.785C562 441.698 554.916 443.134 559.217 453.417C563.518 463.701 552.132 466.328 556.941 480.439C561.75 494.549 594.381 502.439 600.45 485.699C606.52 468.958 586.284 464.895 587.542 457.481C588.8 450.066 593.359 448.155 587.289 440.743C581.219 433.331 577.421 429.024 579.193 424.241C579.491 423.377 579.588 422.461 579.475 421.557C579.362 420.654 579.042 419.785 578.538 419.01C578.034 418.235 577.357 417.573 576.556 417.07C575.754 416.567 574.846 416.235 573.895 416.097V416.097Z" fill="#544DB8"/>
<path d="M601.491 358.28C597.189 358.28 592.984 359.486 589.406 361.745C585.829 364.004 583.041 367.216 581.395 370.973C579.749 374.73 579.318 378.864 580.157 382.853C580.996 386.842 583.068 390.505 586.11 393.381C589.152 396.257 593.028 398.215 597.248 399.008C601.467 399.802 605.841 399.395 609.815 397.838C613.79 396.282 617.187 393.646 619.577 390.265C621.968 386.884 623.243 382.908 623.243 378.842C623.243 373.388 620.952 368.158 616.872 364.302C612.793 360.446 607.26 358.28 601.491 358.28V358.28ZM590.505 377.232C590.506 376.735 590.662 376.249 590.955 375.836C591.247 375.423 591.663 375.102 592.148 374.912C592.634 374.722 593.169 374.673 593.684 374.77C594.2 374.867 594.673 375.107 595.045 375.458C595.416 375.81 595.669 376.258 595.772 376.745C595.874 377.233 595.821 377.738 595.62 378.197C595.419 378.656 595.078 379.048 594.641 379.324C594.204 379.6 593.69 379.748 593.164 379.748C592.814 379.749 592.468 379.685 592.145 379.56C591.821 379.435 591.527 379.251 591.279 379.018C591.031 378.785 590.834 378.509 590.698 378.204C590.563 377.899 590.493 377.573 590.492 377.242L590.505 377.232ZM601.491 390.055C599.819 390.054 598.204 389.481 596.945 388.442C595.685 387.403 594.866 385.968 594.639 384.403H608.341C608.116 385.97 607.299 387.407 606.039 388.448C604.78 389.489 603.164 390.063 601.491 390.065V390.055ZM609.83 379.748C609.304 379.748 608.79 379.6 608.353 379.324C607.916 379.048 607.575 378.656 607.374 378.197C607.172 377.738 607.119 377.233 607.222 376.745C607.324 376.258 607.577 375.81 607.949 375.458C608.32 375.107 608.794 374.867 609.309 374.77C609.825 374.673 610.359 374.722 610.845 374.912C611.331 375.102 611.746 375.423 612.039 375.836C612.331 376.249 612.488 376.735 612.488 377.232C612.49 377.563 612.422 377.891 612.29 378.198C612.157 378.504 611.961 378.783 611.714 379.017C611.467 379.252 611.174 379.438 610.85 379.565C610.527 379.693 610.18 379.758 609.83 379.758V379.748Z" fill="#FEC800"/>
<path d="M278.36 525.096L277.086 522.689L311.57 506.39L355.072 507.063L402.311 490.245H438.389L476.911 478.107L477.224 478.139L508.114 481.459L525.529 472.892L526.842 475.278L508.66 484.216L508.226 484.172L477.216 480.839L438.62 492.924H402.578L355.58 509.752H355.305L312.227 509.085L278.36 525.096Z" fill="#F9FBFC"/>
<path d="M404.92 460.515C404.92 460.515 439.106 512.837 434.821 549.233L458.078 549.69L448.111 544.238L450.96 543.783C450.96 543.783 442.415 487.368 434.346 467.349C425.895 446.382 423.432 454.155 423.432 454.155L404.92 460.515Z" fill="#544DB8"/>
<path d="M392.58 457.268C392.58 457.268 394.478 493.614 391.633 507.517C388.788 521.42 380.241 548.797 380.241 548.797L402.072 549.246L396.338 545.419L392.699 543.412C392.699 543.412 408.244 503.932 409.666 485.089C410.301 475.16 411.57 465.276 413.465 455.492L392.58 457.268Z" fill="#544DB8"/>
<path d="M437.255 349.704L440.825 347.35L442.426 341.796L440.647 341.459L439.578 343.479L440.647 333.888L438.867 334.226L437.087 343.479L434.95 347.853L436.909 349.032" fill="#F7D3A9"/>
<path d="M458.315 359.687L458.79 355.65L464.008 350.717L465.195 352.275L463.297 354.294L473.264 352.051V354.071L464.008 357.446L462.11 360.588L458.315 359.687Z" fill="#F7D3A9"/>
<path d="M434.783 346.309C434.783 346.309 394.253 392.806 389.532 402.106C389.532 402.106 387.563 405.453 387.563 415.123C387.563 424.794 391.106 460.505 391.106 460.505L432.424 462.738C432.424 462.738 419.043 419.215 418.65 418.101C415.284 413.798 410.621 410.556 405.272 408.802L439.899 349.658L434.783 346.309Z" fill="#6DB8FF"/>
<path d="M409.12 404.31C409.12 404.31 410.842 409.137 411.792 412.057C411.792 412.057 403.358 411.889 400.389 408.184L403.536 401.055L409.12 404.31Z" fill="#F7D3A9"/>
<path d="M415.533 389.219C415.533 389.219 418.027 402.952 415.533 406.073C413.039 409.194 404.486 403.887 400.924 398.895C397.362 393.902 396.648 382.666 402.704 381.728C405.445 381.244 408.279 381.743 410.651 383.128C413.023 384.513 414.764 386.685 415.533 389.219V389.219Z" fill="#F7D3A9"/>
<path d="M411.699 414.638C411.699 414.638 444.192 395.317 446.815 391.353C449.438 387.388 456.771 357.911 456.771 357.911L463.061 359.396C463.061 359.396 459.391 392.344 458.345 395.813C457.298 399.281 425.324 431.482 417.988 431.482C410.652 431.482 408.029 422.567 411.699 414.638Z" fill="#6DB8FF"/>
<path d="M413.226 386.158C413.226 386.158 414.874 380.773 411.328 378.081C409.8 377.049 408.027 376.387 406.166 376.153C404.304 375.918 402.41 376.119 400.65 376.736C400.65 378.294 404.445 379.202 403.498 380.111C402.55 381.02 397.565 380.111 396.379 384.821C395.192 389.53 396.851 390.431 396.851 390.431C396.083 391.468 395.712 392.722 395.798 393.986C395.884 395.25 396.423 396.448 397.326 397.384C400.413 401.421 407.384 404.752 409.12 404.321C410.855 403.89 409.905 397.609 409.905 397.609C409.905 397.609 405.871 397.16 405.632 394.691C405.393 392.222 407.532 391.999 408.48 392.897C409.427 393.796 409.666 395.813 410.38 395.364C411.094 394.915 410.141 390.205 410.141 390.205C411.534 389.141 412.6 387.744 413.226 386.158V386.158Z" fill="#544DB8"/>
<path d="M432.352 523.595L407.95 529.925C404.719 530.772 401.975 532.793 400.316 535.547C398.656 538.301 398.218 541.563 399.095 544.622L403.712 560.529C404.608 563.583 406.746 566.178 409.659 567.747C412.572 569.316 416.024 569.731 419.26 568.902L426.579 567.004L433.783 573.733L436.346 564.47L443.662 562.572C446.893 561.726 449.638 559.704 451.297 556.951C452.957 554.197 453.395 550.934 452.517 547.875L447.895 531.966C446.997 528.914 444.859 526.321 441.948 524.753C439.036 523.185 435.587 522.769 432.352 523.595Z" fill="#9570EE"/>
<path d="M416.206 549.666C416.352 550.171 416.337 550.705 416.162 551.202C415.987 551.698 415.661 552.134 415.224 552.455C414.787 552.776 414.259 552.967 413.707 553.005C413.155 553.042 412.604 552.924 412.123 552.665C411.641 552.407 411.252 552.019 411.005 551.551C410.757 551.084 410.661 550.557 410.73 550.038C410.798 549.519 411.028 549.03 411.39 548.635C411.753 548.239 412.231 547.954 412.764 547.815C413.119 547.723 413.489 547.698 413.854 547.741C414.219 547.784 414.571 547.895 414.891 548.067C415.21 548.239 415.491 548.468 415.717 548.743C415.942 549.017 416.108 549.331 416.206 549.666Z" fill="white"/>
<path d="M428.504 546.478C428.651 546.983 428.636 547.517 428.461 548.014C428.286 548.51 427.96 548.947 427.523 549.268C427.086 549.589 426.557 549.78 426.005 549.817C425.453 549.855 424.902 549.737 424.421 549.478C423.94 549.219 423.551 548.831 423.303 548.363C423.055 547.895 422.96 547.368 423.029 546.849C423.098 546.329 423.328 545.841 423.691 545.446C424.053 545.05 424.532 544.765 425.066 544.627C425.781 544.442 426.546 544.533 427.191 544.88C427.835 545.227 428.308 545.802 428.504 546.478Z" fill="white"/>
<path d="M440.803 543.29C440.949 543.795 440.933 544.329 440.758 544.825C440.583 545.322 440.256 545.758 439.819 546.078C439.382 546.399 438.853 546.59 438.301 546.627C437.749 546.664 437.198 546.545 436.717 546.286C436.236 546.027 435.848 545.639 435.6 545.171C435.353 544.703 435.258 544.176 435.327 543.657C435.396 543.138 435.627 542.65 435.989 542.255C436.352 541.859 436.831 541.575 437.364 541.436C437.719 541.345 438.089 541.32 438.454 541.363C438.819 541.407 439.171 541.518 439.49 541.69C439.809 541.862 440.09 542.092 440.315 542.367C440.54 542.641 440.706 542.955 440.803 543.29V543.29Z" fill="white"/>
<path d="M311.661 511.331C314.152 511.331 316.171 509.422 316.171 507.068C316.171 504.714 314.152 502.805 311.661 502.805C309.17 502.805 307.151 504.714 307.151 507.068C307.151 509.422 309.17 511.331 311.661 511.331Z" fill="#FFC240"/>
<path d="M477.301 483.964C479.792 483.964 481.811 482.056 481.811 479.701C481.811 477.347 479.792 475.438 477.301 475.438C474.81 475.438 472.791 477.347 472.791 479.701C472.791 482.056 474.81 483.964 477.301 483.964Z" fill="#FF4F72"/>
</g>
<defs>
<clipPath id="clip0_81_47">
<rect width="535" height="382" fill="white" transform="translate(123 199)"/>
</clipPath>
</defs>
</svg>
